<svg width="268" height="504" fill="none" xmlns="http://www.w3.org/2000/svg"><g opacity=".2"><mask id="a" style="mask-type:alpha" maskUnits="userSpaceOnUse" x="-163" y="73" width="358" height="358"><circle opacity=".3" cx="15.935" cy="251.935" r="178.145" transform="rotate(45 15.935 251.935)" fill="#F94641"/></mask><g mask="url(#a)" stroke="#F63D37" stroke-width="7" stroke-linecap="square"><path d="M130.127-180.345L-2324.58 2274.36M147.805-162.667L-2306.9 2292.04M165.483-144.989L-2289.23 2309.72M183.161-127.312L-2271.55 2327.4M200.838-109.634L-2253.87 2345.07M218.516-91.956L-2236.19 2362.75M236.193-74.279L-2218.52 2380.43M253.871-56.6L-2200.84 2398.11M271.549-38.923L-2183.16 2415.79M289.227-21.246L-2165.48 2433.46M306.904-3.568L-2147.8 2451.14M324.582 14.11L-2130.13 2468.82M342.259 31.787L-2112.45 2486.5M359.937 49.465L-2094.77 2504.17M377.615 67.143L-2077.09 2521.85M395.292 84.82L-2059.42 2539.53M412.97 102.498L-2041.74 2557.21"/></g></g></svg>