<svg width="172" height="63" fill="none" xmlns="http://www.w3.org/2000/svg"><path d="M58.766 28.02a.242.242 0 00-.245-.242h-.9c-.19 0-.272.134-.272.243v.838c-.93-1.163-2.624-1.217-3.253-1.217-2.05 0-3.96 1.11-3.96 4.498v3.743c0 3.393 1.91 4.502 3.96 4.502.629 0 2.324-.055 3.253-1.217v.837c0 .108.082.244.273.244h.898a.243.243 0 00.246-.244V28.021zm-1.417 8.188c0 1.794-1.202 2.879-2.98 2.879-1.42 0-2.815-.706-2.815-3.31V32.25c0-2.604 1.395-3.31 2.815-3.31 1.778 0 2.98 1.086 2.98 2.876v4.392zm14.557-8.188a.242.242 0 00-.246-.242h-.898c-.192 0-.274.134-.274.243v.838c-.928-1.163-2.623-1.217-3.252-1.217-2.05 0-3.96 1.11-3.96 4.5v3.12c0 3.39 1.91 4.499 3.96 4.499.629 0 2.323-.054 3.252-1.217v2.113c0 1.629-.874 2.85-2.569 2.85-1.476 0-2.078-.815-2.46-1.629-.055-.108-.082-.244-.273-.244h-.792a.243.243 0 00-.245.244c0 .923 1.064 2.927 3.77 2.927 2.788 0 3.987-1.841 3.987-4.094v-12.69zm-1.418 7.567c0 1.791-1.202 2.876-2.98 2.876-1.42 0-2.814-.705-2.814-3.31v-2.902c0-2.605 1.394-3.31 2.815-3.31 1.777 0 2.98 1.085 2.98 2.875v3.771zm26.117 4.418c0 .108.081.244.245.244h.898c.192 0 .274-.136.274-.244V32.14c0-3.389-1.91-4.498-3.96-4.498-.628 0-2.323.054-3.252 1.217v-.838c0-.109-.082-.243-.273-.243h-.899a.242.242 0 00-.245.243v11.984c0 .108.082.244.245.244h.9c.19 0 .272-.136.272-.244v-8.19c0-1.79 1.202-2.875 2.98-2.875 1.421 0 2.814.705 2.814 3.309v7.756zm5.791-3.713c0 2.252 1.417 4.093 4.205 4.093 2.515 0 4.042-1.597 4.233-3.523a.243.243 0 00-.246-.244h-.899c-.191 0-.273.135-.273.244-.164 1.302-1.339 2.225-2.815 2.225-1.695 0-2.788-1.22-2.788-2.849v-4.45c0-1.627 1.093-2.848 2.788-2.848 1.476 0 2.651.923 2.815 2.225 0 .108.082.244.273.244h.899a.243.243 0 00.246-.244c-.191-1.927-1.718-3.523-4.233-3.523-2.788 0-4.205 1.84-4.205 4.092v4.558zm9.916 7.048c-.109 0-.218.082-.218.245v.868c0 .135.109.217.218.217h.683c2.186 0 3.494-.841 3.494-4.123V28.018a.243.243 0 00-.246-.244h-.898c-.192 0-.274.136-.274.244v12.096c0 1.681-.054 3.227-2.567 3.227h-.192zm2.759-19.17c0-.108.082-.243.274-.243h.898c.164 0 .246.135.246.244v2.14a.243.243 0 01-.246.243h-.898c-.192 0-.274-.136-.274-.243v-2.14zm14.558 3.85a.242.242 0 00-.246-.242h-.899c-.191 0-.273.134-.273.243v.838c-.929-1.163-2.624-1.217-3.253-1.217-2.05 0-3.959 1.11-3.959 4.498v3.743c0 3.393 1.909 4.502 3.959 4.502.629 0 2.324-.055 3.253-1.217v.837c0 .108.082.244.273.244h.899a.243.243 0 00.246-.244V28.021zm-1.418 8.188c0 1.794-1.202 2.879-2.98 2.879-1.42 0-2.814-.706-2.814-3.31V32.25c0-2.604 1.394-3.31 2.814-3.31 1.778 0 2.98 1.086 2.98 2.876v4.392zM55.68 50.183c-.136 0-.245.136-.273.244l-2.404 11.065-2.102-11.065c-.027-.108-.11-.244-.273-.244h-.902c-.19 0-.273.136-.273.244l2.431 11.984c.028.109.082.243.246.243h1.584c.19 0 .273-.134.3-.243l2.103-9.11 2.103 9.11c.028.109.11.243.3.243h1.584c.164 0 .219-.134.246-.243l2.431-11.984c0-.108-.081-.244-.273-.244h-.901c-.164 0-.246.136-.273.244L59.23 61.492l-2.404-11.065c-.027-.108-.137-.244-.273-.244h-.873zm16.663 0c-1.092 0-2.923.649-4.316 2.681v-2.438c0-.107-.082-.243-.273-.243h-.899a.243.243 0 00-.246.243V62.41c0 .109.082.245.246.245h.899c.191 0 .273-.136.273-.245v-5.37c0-3.47 2.623-5.233 4.316-5.477.11 0 .246-.082.246-.244v-.866c0-.189-.136-.27-.246-.27zm7.514-.136c-2.788 0-4.206 1.842-4.206 4.093v4.558c0 2.252 1.418 4.092 4.206 4.092 2.788 0 4.205-1.84 4.205-4.092V54.14c0-2.251-1.417-4.093-4.205-4.093zm0 11.445c-1.695 0-2.788-1.221-2.788-2.849v-4.449c0-1.627 1.093-2.848 2.788-2.848 1.695 0 2.788 1.22 2.788 2.848v4.45c0 1.627-1.093 2.848-2.788 2.848zm8.306-2.794c0 2.252 1.418 4.092 4.206 4.092 2.514 0 4.041-1.596 4.233-3.523a.243.243 0 00-.246-.244h-.899c-.191 0-.273.136-.273.244-.164 1.303-1.34 2.225-2.815 2.225-1.695 0-2.788-1.221-2.788-2.849v-4.449c0-1.627 1.093-2.848 2.788-2.848 1.475 0 2.65.922 2.815 2.224 0 .109.082.244.273.244h.899a.243.243 0 00.246-.244c-.192-1.926-1.719-3.523-4.233-3.523-2.788 0-4.206 1.842-4.206 4.093v4.558zm19.147-6.781l-3.197.57v-6.345a.243.243 0 00-.245-.244h-.899c-.191 0-.273.135-.273.244v6.72l-2.432.46a.33.33 0 00-.245.326v.732c0 .136.109.19.191.19l2.486-.461v8.301c0 .109.082.244.273.244h.899a.243.243 0 00.245-.244v-8.675l3.197-.57c.218-.027.245-.19.245-.298v-.733c0-.162-.082-.217-.245-.217zm11.801-1.491a.243.243 0 00-.246-.244h-.898c-.192 0-.274.136-.274.244v.838c-.928-1.162-2.623-1.217-3.252-1.217-2.05 0-3.96 1.11-3.96 4.499v3.742c0 3.393 1.91 4.502 3.96 4.502.629 0 2.324-.054 3.252-1.217v.837c0 .109.082.245.274.245h.898a.243.243 0 00.246-.245V50.426zm-1.418 8.188c0 1.792-1.202 2.878-2.979 2.878-1.421 0-2.815-.705-2.815-3.31v-3.527c0-2.603 1.394-3.31 2.815-3.31 1.777 0 2.979 1.086 2.979 2.876v4.393zm11.473-8.431c-.137 0-.246.136-.273.244l-2.404 11.065-2.103-11.065c-.027-.108-.109-.244-.273-.244h-.901c-.192 0-.274.136-.274.244l2.432 11.984c.027.109.082.243.246.243h1.583c.191 0 .273-.134.3-.243l2.103-9.11 2.104 9.11c.027.109.109.243.3.243h1.584c.164 0 .218-.134.245-.243l2.432-11.984c0-.108-.082-.244-.273-.244h-.902c-.164 0-.246.136-.273.244l-2.103 11.065-2.404-11.065c-.027-.108-.136-.244-.273-.244h-.873zm16.364 9.572c0 1.574-1.831 1.737-2.323 1.737-.957 0-2.406-.434-2.542-1.872 0-.109-.082-.244-.273-.244h-.899a.243.243 0 00-.246.244c.027 1.357 1.227 3.17 4.042 3.17 1.64 0 3.659-.974 3.659-3.035 0-3.499-6.311-3.716-6.311-6.429 0-1.926 1.75-1.98 2.269-1.98.957 0 2.16.543 2.406 2.089.027.108.082.244.273.244h.899a.243.243 0 00.245-.244c-.19-1.357-1.308-3.388-3.905-3.388-1.722 0-3.604.974-3.604 3.306 0 3.96 6.31 3.527 6.31 6.402zm6.772-1.955V46.14a.242.242 0 00-.245-.245h-.899c-.191 0-.273.136-.273.245v16.27c0 .109.082.245.273.245h.899a.242.242 0 00.245-.245v-2.17l3.279-5.098 2.813 7.268c.028.109.137.245.301.245h.874c.191 0 .273-.136.273-.245l-3.333-8.678 2.104-3.309c0-.108-.082-.244-.273-.244h-.956c-.164 0-.301.163-.356.244l-4.726 7.377zm19.451-7.374a.243.243 0 00-.246-.244h-.899c-.191 0-.273.136-.273.244v.838c-.929-1.162-2.624-1.217-3.253-1.217-2.05 0-3.959 1.11-3.959 4.499v3.742c0 3.393 1.909 4.502 3.959 4.502.629 0 2.324-.054 3.253-1.217v.837c0 .109.082.245.273.245h.899a.243.243 0 00.246-.245V50.426zm-1.418 8.188c0 1.792-1.202 2.878-2.98 2.878-1.42 0-2.814-.705-2.814-3.31v-3.527c0-2.603 1.394-3.31 2.814-3.31 1.778 0 2.98 1.086 2.98 2.876v4.393z" fill="#FAFBFC"/><path fill-rule="evenodd" clip-rule="evenodd" d="M16.789 6.53C9.543 11.486 5.382 17.876 5.382 24.61v12.28H.622V24.61c0-8.542 5.255-16.833 14.89-22.908L16.79.897l1.275.805C27.7 7.777 32.956 16.068 32.956 24.609v12.282h-4.76V24.609c0-6.733-4.16-13.123-11.407-18.079zM.563 62.66V44.567l4.604-3.983v15.291l11.53-11.919L28.41 55.922v-15.3l4.604 3.937v18.1h-4.61L16.716 50.555 5.166 62.659H.564z" fill="#FAFBFC"/><path d="M20.902 22.397H2.814v4.423h18.09v-4.423zm56.932 9.366v4.474c0 1.628 1.092 2.85 2.788 2.85 1.475 0 2.296-.815 2.678-1.629.055-.108.082-.245.273-.245h.79c.165 0 .246.137.246.245 0 .922-1.282 2.927-3.987 2.927-2.788 0-4.206-1.84-4.206-4.094V31.71c0-2.552 1.8-4.067 4.233-4.067 2.487 0 4.233 1.46 4.233 4.067v2.52a.242.242 0 01-.246.244H79.5a.255.255 0 01-.256-.255v-.761c0-.068.027-.133.075-.181a.262.262 0 01.181-.074h3.963v-1.439c0-1.629-1.093-2.823-2.842-2.823-1.668 0-2.788 1.194-2.788 2.823z" fill="#FAFBFC"/></svg>