<svg width="60" height="34" fill="none" xmlns="http://www.w3.org/2000/svg"><path d="M9.5 25v8M22 22v11M33 8.5V33m12-18v18M55 3.5V33" stroke="#FFD5D5" stroke-width="2" stroke-linecap="round" stroke-dasharray="4 4"/><path d="M59 5.5l-2.434-.811a3 3 0 00-3.36 1.063l-5.578 7.545a3 3 0 01-3.97.781L34.44 8.482a3 3 0 00-4.04.882l-8.178 12.072a3 3 0 01-1.991 1.277l-9.89 1.648a3 3 0 00-1.482.701L1.5 31.5" stroke="#F63D37" stroke-width="2" stroke-linecap="round"/><circle cx="9.5" cy="24.5" r="3.5" fill="#F63D37"/><circle cx="32.5" cy="7.5" r="3.5" fill="#F63D37"/><circle cx="54.5" cy="3.5" r="3.5" fill="#F63D37"/></svg>