<svg width="82" height="89" fill="none" xmlns="http://www.w3.org/2000/svg"><mask id="a" style="mask-type:alpha" maskUnits="userSpaceOnUse" x="5" y="12" width="64" height="64"><circle cx="37.297" cy="44.296" r="31.322" transform="rotate(135 37.297 44.296)" fill="#F94641"/></mask><g mask="url(#a)" stroke="#F63D37" stroke-width="2.215" stroke-linecap="square"><path d="M113.303 64.374l-776.881-776.881M107.708 69.97l-776.881-776.882M102.113 75.564l-776.881-776.881M96.519 81.159l-776.882-776.881M90.924 86.753l-776.881-776.881M85.33 92.348l-776.882-776.881M79.734 97.943l-776.881-776.881M74.14 103.538l-776.882-776.881M68.545 109.132l-776.881-776.881M62.95 114.727l-776.88-776.881M57.355 120.322l-776.881-776.881M51.76 125.917l-776.88-776.882M46.166 131.511L-730.715-645.37M40.571 137.106L-736.31-639.775M34.977 142.701L-741.905-634.18M29.382 148.295L-747.5-628.586M23.787 153.891l-776.881-776.882"/></g></svg>