<svg width="1920" height="600" fill="none" xmlns="http://www.w3.org/2000/svg"><path fill="url(#paint0_linear_166_6050)" d="M0 0h1920v600H0z"/><mask id="a" style="mask-type:alpha" maskUnits="userSpaceOnUse" x="0" y="0" width="1920" height="600"><path fill="#F63D37" d="M0 0h1920v600H0z"/></mask><g mask="url(#a)"><circle opacity=".6" cx="1555.5" cy="82.5" r="35.5" fill="#FA7070"/><mask id="b" style="mask-type:alpha" maskUnits="userSpaceOnUse" x="-208" y="415" width="358" height="358"><circle cx="-29.065" cy="593.935" r="178.145" transform="rotate(45 -29.065 593.935)" fill="#F94641"/></mask><g mask="url(#b)" stroke="#F63D37" stroke-width="7" stroke-linecap="square"><path d="M85.127 161.655L-2369.58 2616.36M102.805 179.333L-2351.9 2634.04M120.483 197.01L-2334.23 2651.72M138.161 214.688L-2316.55 2669.4M155.838 232.366L-2298.87 2687.07M173.516 250.044L-2281.19 2704.75M191.193 267.721L-2263.52 2722.43M208.871 285.399L-2245.84 2740.11M226.549 303.077L-2228.16 2757.79M244.227 320.754L-2210.48 2775.46M261.904 338.432L-2192.8 2793.14M279.582 356.11L-2175.13 2810.82M297.259 373.787L-2157.45 2828.5M314.937 391.465L-2139.77 2846.17M332.615 409.143L-2122.09 2863.85M350.292 426.82L-2104.42 2881.53M367.97 444.498L-2086.74 2899.21"/></g><g opacity=".36"><mask id="c" style="mask-type:alpha" maskUnits="userSpaceOnUse" x="1361" y="291" width="559" height="559"><circle opacity=".8" cx="1640.5" cy="570.5" r="278.954" transform="rotate(135 1640.5 570.5)" fill="#F94641"/></mask><g mask="url(#c)" stroke="#F63D37" stroke-width="4" stroke-linecap="square"><path d="M2326.47 798.896L368.574-1159M2309.5 815.866L351.603-1142.03M2292.53 832.837L334.632-1125.06M2275.56 849.807L317.662-1108.09M2258.59 866.778L300.692-1091.12M2241.62 883.749L283.721-1074.15M2224.65 900.719L266.751-1057.18M2207.68 917.69l-1957.9-1957.9M2190.71 934.66L232.809-1023.24M2173.73 951.631L215.838-1006.27M2156.76 968.601L198.868-989.295M2139.79 985.572L181.898-972.324M1834.57 710.312L-123.324-1247.58M1817.6 727.282L-140.294-1230.61M1800.63 744.253L-157.265-1213.64M1783.66 761.223L-174.236-1196.67M1766.69 778.194L-191.205-1179.7M1749.72 795.164L-208.176-1162.73M1732.75 812.135L-225.147-1145.76M1715.78 829.105L-242.118-1128.79M1698.81 846.076L-259.088-1111.82M1681.84 863.047L-276.059-1094.85M1664.87 880.017L-293.03-1077.88M1647.9 896.988L-309.999-1060.91"/></g></g><circle cx="204" cy="600" r="79" fill="#FFF7F7"/><circle cx="131.5" cy="-40.5" r="68.5" fill="#FFD5D5"/></g><defs><linearGradient id="paint0_linear_166_6050" x1="1955" y1="527" x2="327" y2="459" gradientUnits="userSpaceOnUse"><stop stop-color="#FFD1D0" stop-opacity=".13"/><stop offset="1" stop-color="#F4F4F4" stop-opacity="0"/></linearGradient></defs></svg>