<svg width="33" height="32" fill="none" xmlns="http://www.w3.org/2000/svg"><circle cx="16.565" cy="16.049" r="11.963" stroke="#F63D37" stroke-width="2.658"/><mask id="a" fill="#fff"><path d="M13.74 24.024v-1.592c-.218-.06-.43-.12-.635-.181-.193-.073-.38-.145-.56-.217a8.298 8.298 0 01-.472-.254l1.087-2.48c.217.12.489.24.815.362.338.12.688.223 1.05.307.374.073.706.11.995.11a3.6 3.6 0 00.888-.091c.241-.06.416-.145.525-.254a.554.554 0 00.18-.398c0-.193-.096-.38-.289-.562a3.992 3.992 0 00-.706-.543c-.29-.18-.591-.362-.905-.543a403.71 403.71 0 01-1.25-.76 9.578 9.578 0 01-1.195-.888 4.135 4.135 0 01-.905-1.104 2.911 2.911 0 01-.344-1.412 3.197 3.197 0 01.58-1.83c.386-.542.923-.959 1.61-1.249v-2.19l2.137-.181v1.919h.254c.096 0 .187.006.271.018h.272V8.255l2.155-.181v2.444c.169.072.332.15.489.235.157.073.301.157.434.254l-.977 2.227a11.628 11.628 0 00-1.087-.344 5.207 5.207 0 00-.76-.145 4.896 4.896 0 00-.76-.054c-.375 0-.67.066-.888.199-.217.133-.326.314-.326.543 0 .205.085.386.254.543.18.157.41.314.688.471.29.145.597.314.923.507.434.253.87.519 1.304.797.446.277.85.585 1.213.923.362.338.652.712.869 1.123.23.398.344.85.344 1.358a3.12 3.12 0 01-.561 1.81c-.363.531-.882.954-1.558 1.268v1.846h-2.154v-1.321h-.308a2.943 2.943 0 01-.326.018h-.235v1.248h-2.137z"/></mask><path d="M13.74 24.024h-3.396v3.395h3.395v-3.395zm0-1.592h3.394v-2.58l-2.486-.691-.909 3.27zm-.635-.181l-1.192 3.179.116.043.119.035.957-3.257zm-.56-.217l-1.52 3.036.127.063.131.053 1.261-3.152zm-.472-.254l-3.11-1.362-1.213 2.77 2.613 1.524 1.71-2.932zm1.087-2.48l1.649-2.968-3.262-1.812-1.497 3.418 3.11 1.361zm.815.362l-1.18 3.183.019.007.019.007 1.142-3.197zm1.05.307l-.772 3.307.063.014.064.012.645-3.333zm1.883.018l-.824-3.293-.02.005-.02.005.864 3.284zm.525-.253l2.4 2.4-2.4-2.4zm-.109-.96l-2.4 2.401.038.039.04.037 2.322-2.477zm-.706-.543l-1.8 2.88 1.8-2.88zm-.905-.543l-1.76 2.903.032.02.031.018 1.697-2.941zm-1.25-.76l-1.806 2.874.018.011.018.011 1.77-2.896zm-1.195-.888l2.23-2.56-2.23 2.56zm-.905-1.104l-2.984 1.62.01.018.01.018 2.964-1.656zm-.344-1.412l-3.394-.06v.06h3.394zm.58-1.83L9.831 9.728l-.005.006-.004.007 2.775 1.955zm1.61-1.249l1.318 3.13 2.078-.875v-2.255H14.21zm0-2.19l-.286-3.383-3.108.263v3.12h3.395zm2.137-.181h3.395V4.379l-3.681.312.286 3.383zm0 1.919h-3.395v3.395h3.395V9.993zm.526.018l-.48 3.36.238.035h.242V10.01zm.271 0v3.395h3.395V10.01h-3.395zm0-1.756l-.284-3.383-3.11.261v3.122h3.394zm2.155-.181h3.395V4.38l-3.68.31.285 3.383zm0 2.444h-3.395v2.239l2.057.881 1.338-3.12zm.489.235l-1.61 2.99.092.049.095.044 1.423-3.083zm.434.254l3.109 1.365 1.099-2.503-2.211-1.608-1.997 2.746zm-.977 2.227l-1.154 3.193 2.986 1.078 1.276-2.906-3.108-1.365zm-1.087-.344l-.857 3.285.017.004.017.004.823-3.293zm-.76-.145l-.53 3.353.087.014.087.01.356-3.377zm-1.648.145l-1.77-2.897 1.77 2.897zm-.072 1.086l-2.31 2.488.042.04.044.038 2.224-2.566zm.688.471l-1.67 2.956.074.042.077.038 1.519-3.036zm.923.507l-1.73 2.92.01.007.01.006 1.71-2.933zm1.304.797l-1.828 2.86.018.012.017.01 1.793-2.882zm1.213.923l-2.317 2.482 2.317-2.482zm.869 1.123l-3 1.588.028.053.03.053 2.942-1.694zm-.217 3.168L17.66 19.04l-.005.007-.004.007 2.805 1.912zm-1.558 1.268l-1.43-3.08-1.965.913v2.167H18.9zm0 1.846v3.395h3.395v-3.395H18.9zm-2.154 0H13.35v3.395h3.395v-3.395zm0-1.321h3.395v-3.395h-3.395v3.395zm-.308 0v-3.395h-.188l-.187.02.375 3.375zm-.561.018V19.38H12.48v3.395h3.395zm0 1.248v3.395h3.395v-3.395h-3.395zm1.258 0v-1.592h-6.79v1.593h6.79zm-2.486-4.863a40.754 40.754 0 01-.585-.167l-1.915 6.514c.222.065.45.13.683.195l1.817-6.542zm-.35-.089a23.997 23.997 0 01-.493-.19l-2.522 6.304c.205.082.415.163.63.244l2.384-6.358zm-.236-.075a4.888 4.888 0 01-.278-.15l-3.421 5.865c.215.126.437.245.663.358l3.036-6.073zm1.121 4.145l1.087-2.48-6.22-2.724-1.086 2.48 6.22 2.724zm-3.672-.875c.414.23.855.42 1.284.578l2.359-6.367a2.856 2.856 0 01-.345-.146l-3.298 5.935zm1.322.592c.463.165.937.304 1.42.417l1.543-6.613a6.24 6.24 0 01-.68-.198l-2.283 6.394zm1.547.443a8.626 8.626 0 001.64.171v-6.79c-.017 0-.126-.003-.35-.047l-1.29 6.666zm1.64.171c.518 0 1.134-.04 1.752-.202l-1.728-6.567a.945.945 0 01.102-.022l.023-.004-.045.003-.104.002v6.79zm1.711-.192c.505-.126 1.367-.411 2.102-1.146l-4.8-4.802c.275-.275.543-.43.711-.511a1.8 1.8 0 01.34-.128l1.647 6.587zm2.102-1.146a3.945 3.945 0 001.176-2.8h-6.79c0-.415.09-.824.259-1.196.164-.361.375-.626.554-.805l4.801 4.8zm1.176-2.8c0-1.438-.747-2.46-1.363-3.037l-4.644 4.953c-.229-.215-.783-.863-.783-1.915h6.79zm-1.284-2.961a7.358 7.358 0 00-1.308-1.022L14.82 21.11c.065.04.104.07.123.084.02.015.01.01-.018-.019l4.8-4.801zm-1.308-1.022a33.627 33.627 0 00-1.008-.605l-3.393 5.882c.281.162.549.322.803.481l3.598-5.758zm-.945-.567c-.394-.24-.807-.49-1.238-.754l-3.54 5.793c.437.268.857.524 1.26.767l3.518-5.806zm-1.202-.732a6.184 6.184 0 01-.772-.573l-4.46 5.12c.508.442 1.048.843 1.619 1.202l3.613-5.749zm-.772-.573a.754.754 0 01-.171-.2l-5.928 3.312c.431.77.987 1.44 1.64 2.008l4.46-5.12zm-.151-.164c.026.048.045.1.056.146.012.046.011.07.011.062h-6.79c0 1.038.235 2.073.755 3.032l5.968-3.24zm.066.267c0-.022.002-.031.002-.03 0 0-.001.009-.006.023a.306.306 0 01-.035.074l-5.55-3.91a6.59 6.59 0 00-1.2 3.724l6.79.12zm-.048.08c-.003.004-.005.004.006-.005a.714.714 0 01.156-.084l-2.634-6.257c-1.198.504-2.267 1.293-3.061 2.41l5.533 3.935zm2.24-3.218v-2.19h-6.79v2.19h6.79zm-3.108 1.192l2.136-.18-.573-6.766-2.137.18.574 6.766zM12.95 8.074v1.919h6.79v-1.92h-6.79zm3.395 5.314h.129v-6.79h-.128v6.79zm.127 0h.128v-6.79h-.125v6.79zm.127 0a1.48 1.48 0 01-.209-.016l.96-6.722a5.314 5.314 0 00-.751-.052v6.79zm.271.018h.273v-6.79h-.271v6.79zm3.667-3.395V8.255h-6.79v1.756h6.79zm-3.11 1.627l2.154-.181-.569-6.766-2.154.18.568 6.767zm-1.525-3.564v2.444h6.79V8.074h-6.79zm2.057 5.564c.08.034.152.07.217.104l3.22-5.978a9.496 9.496 0 00-.762-.366l-2.675 6.24zm.404.198a.834.834 0 01-.14-.084l3.994-5.49a5.953 5.953 0 00-1.009-.591l-2.845 6.165zm-1.251-4.194l-.978 2.227 6.217 2.73.978-2.227-6.217-2.73zm3.284.399a14.917 14.917 0 00-1.416-.445l-1.647 6.587c.135.034.378.108.756.244l2.306-6.386zm-1.383-.436a8.567 8.567 0 00-1.262-.236l-.71 6.752c.024.003.107.015.258.054l1.714-6.57zm-1.088-.213a8.279 8.279 0 00-1.29-.096v6.79c.134 0 .207.009.231.012l1.06-6.706zm-1.29-.096c-.724 0-1.713.12-2.657.697l3.54 5.794c-.262.16-.494.233-.642.266-.145.033-.234.033-.24.033v-6.79zm-2.657.697c-1.094.668-1.95 1.88-1.95 3.44h6.789c0 .446-.113.957-.402 1.439a2.69 2.69 0 01-.897.915l-3.54-5.794zm-1.95 3.44c0 1.271.571 2.32 1.337 3.031l4.62-4.975c.188.174.408.435.577.798.173.371.255.766.255 1.146h-6.79zm1.424 3.109c.397.344.827.626 1.241.86l3.341-5.91a1.908 1.908 0 01-.134-.082c-.024-.017-.022-.017-.001 0l-4.447 5.132zm1.393.941c.207.104.444.233.711.392l3.462-5.842a18.2 18.2 0 00-1.136-.622l-3.037 6.072zm.731.404c.394.23.79.471 1.187.725l3.655-5.722A41.17 41.17 0 0019 12.02l-3.422 5.866zm1.222.747c.271.168.498.343.69.522l4.632-4.964a11.227 11.227 0 00-1.737-1.325l-3.585 5.767zm.69.522a.879.879 0 01.184.23l6.001-3.178a7.65 7.65 0 00-1.553-2.016l-4.633 4.964zm.243.335a.89.89 0 01-.091-.222.516.516 0 01-.018-.114h6.79a6.065 6.065 0 00-.797-3.052l-5.884 3.388zm-.11-.336c0 .006 0 .002.002-.01a.304.304 0 01.029-.09l.008-.016 5.591 3.852a6.514 6.514 0 001.16-3.736h-6.79zm.03-.102c.01-.017.016-.018 0-.006a.886.886 0 01-.182.107l2.86 6.158c1.14-.53 2.173-1.321 2.932-2.434l-5.61-3.825zm-2.148 3.18v1.846h6.79v-1.846h-6.79zm3.395-1.55h-2.154v6.79h2.154v-6.79zm1.24 3.396v-1.321h-6.79v1.32h6.79zm-3.394-4.716h-.308v6.79h.309v-6.79zm-.683.02a.467.467 0 01.05-.002v6.79c.234 0 .468-.013.7-.039l-.75-6.748zm.05-.002h-.236v6.79h.235v-6.79zm-3.631 3.395v1.248h6.79v-1.248h-6.79zm3.395-2.146h-2.137v6.79h2.137v-6.79z" fill="#F63D37" mask="url(#a)"/></svg>