<svg width="727" height="382" fill="none" xmlns="http://www.w3.org/2000/svg"><circle cx="41.5" cy="41.5" r="41.5" fill="#FFD5D5"/><mask id="a" style="mask-type:alpha" maskUnits="userSpaceOnUse" x="590" y="245" width="114" height="114"><circle opacity=".3" cx="646.734" cy="301.734" r="56.38" transform="rotate(45 646.734 301.734)" fill="#F94641"/></mask><g mask="url(#a)" stroke="#F63D37" stroke-width="2.215" stroke-linecap="square"><path d="M682.875 164.923L-94.006 941.805M688.47 170.518L-88.411 947.399m782.475-771.286l-776.88 776.881m782.475-771.286L-77.222 958.589m782.476-771.287L-71.627 964.183m782.476-771.286L-66.033 969.778m782.476-771.286l-776.88 776.881m782.475-771.287L-54.843 980.968m782.476-771.287L-49.248 986.562m782.476-771.286L-43.654 992.157m782.476-771.286l-776.88 776.881m782.475-771.287L-32.464 1003.35m782.476-771.29l-776.881 776.88m782.475-771.285l-776.88 776.885m782.475-771.29L-15.68 1020.13m782.476-771.286L-10.085 1025.73m782.476-771.291L-4.491 1031.32"/></g></svg>