<svg width="1920" height="720" fill="none" xmlns="http://www.w3.org/2000/svg"><path opacity=".1" d="M248.5 492L0 630.5V719h1920V1.5L1765 140l-127.5 14L1221 371.5 933.5 269l-513 284-172-61z" stroke="#F63D37"/><mask id="a" style="mask-type:alpha" maskUnits="userSpaceOnUse" x="-1" y="0" width="1922" height="720"><path opacity=".15" d="M248.5 492L0 630.5V719h1920V1.5l-155 139-127.5 14-416.5 217L932.5 269l-512 285-172-62z" fill="#D9D9D9" stroke="#F63D37"/></mask><g mask="url(#a)" stroke="#F63D37" stroke-dasharray="2 2"><path d="M37-143v861m64-861v861m64-861v861m64-861v861m64-861v861m64-861v861m64-861v861m64-861v861m64-861l.001 861M613-143l.001 861M677-143l.001 861M741-143l.001 861M805-143l.001 861M869-143l.001 861M933-143l.001 861m64-861v861M1061-143v861m64-861v861m64-861v861m64-861v861m64-861v861m64-861v861m64-861v861m64-861v861m64-861v861m64-861v861m64-861v861m64-861v861m64-861v861m64-861v861"/></g><circle cx="251" cy="493" r="4" fill="#FDCDCC"/><circle cx="421" cy="552" r="4" fill="#FDCDCC"/><circle cx="933" cy="269" r="4" fill="#FDCDCC"/><circle cx="1637" cy="154" r="4" fill="#FDCDCC"/><circle cx="1765" cy="140" r="4" fill="#FDCDCC"/></svg>